<?xml version="1.0" standalone="no"?>
<!DOCTYPE svg PUBLIC "-//W3C//DTD SVG 20010904//EN"
 "http://www.w3.org/TR/2001/REC-SVG-20010904/DTD/svg10.dtd">
<svg version="1.0" xmlns="http://www.w3.org/2000/svg"
 width="300.000000pt" height="240.000000pt" viewBox="0 0 300.000000 240.000000"
 preserveAspectRatio="xMidYMid meet">
<metadata>
Created by potrace 1.10, written by Peter Selinger 2001-2011
</metadata>
<g transform="translate(0.000000,240.000000) scale(0.100000,-0.100000)"
fill="#000000" stroke="none">
<path d="M2259 2158 c-1 -1 -3 -13 -4 -25 -2 -19 1 -21 17 -12 20 11 20 30 0
37 -7 2 -13 2 -13 0z"/>
<path d="M341 2118 c2 -31 2 -31 6 -5 4 23 9 27 37 27 17 0 38 -6 46 -12 12
-11 12 -10 1 5 -9 11 -27 17 -52 17 -38 0 -39 -1 -38 -32z"/>
<path d="M1970 2090 c0 -33 3 -60 8 -60 4 0 5 24 4 54 l-4 55 34 4 33 4 -37 1
-38 2 0 -60z"/>
<path d="M344 2055 c1 -28 67 -34 86 -8 12 15 12 16 0 6 -22 -20 -78 -16 -83
5 -3 13 -4 12 -3 -3z"/>
<path d="M1645 1699 c-44 -22 -47 -40 -49 -296 l-1 -243 40 0 c68 0 85 26 85
129 l0 71 29 0 c26 0 34 -9 76 -80 61 -104 82 -120 156 -120 l58 0 -71 110
c-39 61 -69 112 -67 113 2 2 17 8 32 15 34 15 66 81 67 137 0 63 -37 126 -90
153 -37 19 -60 22 -145 21 -55 0 -109 -5 -120 -10z m115 -36 c-8 -3 -27 -14
-42 -25 -30 -21 -54 -86 -38 -102 16 -16 12 -27 -7 -24 -12 2 -18 -3 -18 -17
0 -16 6 -19 25 -17 20 3 22 2 12 -11 -11 -13 -8 -18 17 -33 l30 -18 -30 -33
c-25 -29 -29 -42 -29 -93 0 -41 -5 -63 -16 -75 -27 -27 -34 -1 -35 130 -1 311
3 326 95 324 28 0 44 -3 36 -6z m131 -8 c38 -20 69 -71 69 -114 0 -35 -27 -88
-68 -133 -28 -31 -26 -44 24 -127 67 -110 21 -103 -51 9 -25 37 -59 80 -76 94
-17 14 -29 26 -27 27 2 0 16 3 31 5 42 7 77 22 77 34 0 5 6 9 13 8 8 -2 12 11
13 37 1 24 6 39 13 38 38 -9 -27 87 -78 114 l-44 23 37 0 c20 0 50 -7 67 -15z
m-41 -60 c27 -24 27 -95 1 -119 -11 -10 -43 -20 -75 -23 l-56 -6 0 81 c0 55 4
82 13 86 23 10 98 -2 117 -19z"/>
<path d="M970 1621 c0 -25 41 -90 67 -108 51 -35 86 -41 288 -53 110 -6 212
-15 228 -20 24 -8 27 -7 27 16 0 48 -23 57 -300 113 -146 29 -275 55 -287 58
-14 3 -23 0 -23 -6z m170 -68 c8 -4 23 -5 33 -4 9 1 17 -3 17 -9 0 -6 5 -8 10
-5 18 11 50 -6 50 -26 0 -30 -65 -27 -75 4 l-8 22 -4 -22 c-6 -30 -19 -29 -27
2 -7 27 -33 34 -42 10 -9 -22 -24 -8 -24 21 0 21 3 24 28 18 15 -3 34 -8 42
-11z m196 -34 c5 -9 -1 -10 -20 -5 -34 8 -34 -1 2 -15 15 -6 22 -13 16 -16
-19 -7 -64 16 -64 32 0 18 55 21 66 4z m41 -23 c-4 -9 -11 -16 -17 -16 -11 0
-14 33 -3 44 11 10 26 -11 20 -28z"/>
<path d="M2682 1508 l2 -63 3 57 c4 56 5 57 36 61 31 4 31 4 -5 5 l-38 2 2
-62z"/>
<path d="M1140 1427 c0 -11 16 -35 35 -54 l36 -36 122 9 c67 5 150 9 185 9 57
0 62 2 62 22 0 42 -24 53 -123 54 -51 0 -143 4 -205 7 -105 7 -112 6 -112 -11z
m183 -24 c84 -7 57 -25 -33 -21 -47 2 -75 7 -78 15 -4 14 13 15 111 6z"/>
<path d="M1373 1327 c-108 -11 -115 -15 -92 -58 20 -38 51 -40 176 -12 65 14
120 27 122 29 2 2 1 15 -3 29 -7 29 -20 29 -203 12z"/>
<path d="M82 937 c-6 -6 -10 -39 -9 -72 2 -46 6 -60 17 -60 8 0 16 9 16 20 1
11 2 24 3 30 1 5 14 -6 29 -24 34 -41 65 -40 33 1 -18 23 -19 27 -6 38 22 18
18 46 -7 64 -27 19 -62 21 -76 3z m63 -37 c0 -8 -10 -16 -22 -18 -25 -4 -26
-2 -17 23 8 19 39 16 39 -5z"/>
<path d="M236 931 c-12 -13 -16 -32 -14 -62 2 -35 8 -46 31 -59 24 -13 30 -13
55 0 22 13 28 23 30 62 3 39 -1 49 -20 62 -30 21 -61 20 -82 -3z m70 -35 c9
-38 -4 -68 -29 -64 -23 3 -35 43 -23 74 9 24 45 17 52 -10z"/>
<path d="M384 901 c14 -28 26 -62 26 -77 0 -35 23 -26 31 12 3 16 16 49 28 72
20 40 21 43 4 40 -9 -2 -23 -14 -29 -26 -6 -13 -15 -23 -19 -23 -4 0 -13 10
-19 23 -6 12 -20 24 -29 26 -16 3 -15 -2 7 -47z"/>
<path d="M527 932 c-10 -11 -19 -34 -22 -52 -5 -41 33 -83 71 -78 35 4 34 22
-2 28 -26 5 -29 9 -29 45 0 36 3 40 30 45 39 7 39 24 -1 28 -20 2 -36 -3 -47
-16z"/>
<path d="M650 930 c-40 -40 -14 -130 38 -130 10 0 28 7 40 16 27 19 31 93 6
118 -21 22 -60 20 -84 -4z m65 -55 c0 -33 -3 -40 -20 -40 -16 0 -21 8 -23 43
-3 40 -2 43 20 40 20 -3 23 -9 23 -43z"/>
<path d="M892 938 c-18 -18 -15 -103 4 -123 19 -19 58 -13 87 12 17 16 23 69
9 89 -20 30 -79 43 -100 22z m66 -30 c25 -25 8 -78 -25 -78 -9 0 -13 15 -13
45 0 46 13 58 38 33z"/>
<path d="M1053 938 c-6 -7 -11 -36 -12 -65 -2 -59 12 -73 69 -73 40 0 36 23
-5 30 -38 7 -43 28 -8 32 35 4 33 22 -2 26 -33 4 -27 26 8 30 15 2 27 10 27
18 0 18 -63 19 -77 2z"/>
<path d="M1177 943 c-4 -3 -7 -32 -7 -64 0 -47 4 -60 19 -69 30 -15 71 -13 71
5 0 9 -9 15 -25 15 -24 0 -25 3 -25 60 0 43 -4 60 -13 60 -8 0 -17 -3 -20 -7z"/>
<path d="M1297 943 c-10 -9 -9 -143 1 -143 21 0 32 29 32 87 0 46 -4 63 -13
63 -8 0 -17 -3 -20 -7z"/>
<path d="M1370 939 c0 -19 32 -124 40 -133 17 -18 44 14 62 74 11 34 17 64 14
67 -15 15 -35 -11 -41 -52 -10 -60 -22 -65 -30 -13 -7 44 -20 68 -36 68 -5 0
-9 -5 -9 -11z"/>
<path d="M1533 943 c-9 -3 -13 -26 -13 -63 0 -48 4 -61 19 -70 30 -15 71 -13
71 5 0 10 -10 15 -30 15 -20 0 -30 5 -30 15 0 9 9 15 25 15 16 0 25 6 25 15 0
9 -9 15 -25 15 -16 0 -25 6 -25 15 0 10 10 15 30 15 20 0 30 5 30 15 0 15 -48
20 -77 8z"/>
<path d="M1663 943 c-9 -3 -13 -28 -13 -75 0 -51 3 -69 13 -66 6 3 13 17 15
31 4 34 15 34 32 3 12 -24 38 -41 47 -32 3 2 -4 17 -13 32 -14 20 -15 29 -6
32 20 6 14 60 -7 72 -21 10 -47 12 -68 3z m57 -43 c0 -13 -7 -20 -20 -20 -13
0 -20 7 -20 20 0 13 7 20 20 20 13 0 20 -7 20 -20z"/>
<path d="M1780 940 c0 -5 9 -24 20 -42 11 -18 20 -48 20 -66 0 -42 22 -38 31
6 3 17 16 47 28 67 25 43 25 45 5 45 -9 0 -21 -13 -27 -30 -6 -16 -14 -30 -17
-30 -3 0 -13 14 -22 30 -16 29 -38 40 -38 20z"/>
<path d="M2023 943 c-17 -6 -17 -115 -1 -131 18 -18 78 -16 78 3 0 10 -10 15
-30 15 -20 0 -30 5 -30 15 0 9 9 15 25 15 16 0 25 6 25 15 0 9 -9 15 -25 15
-34 0 -33 28 2 32 40 5 42 28 1 27 -18 0 -39 -3 -45 -6z"/>
<path d="M2130 944 c0 -3 9 -19 21 -35 l21 -29 -22 -36 c-12 -19 -20 -37 -18
-40 10 -9 37 9 44 29 6 20 7 20 26 -6 11 -15 26 -27 34 -27 11 0 10 8 -8 38
l-22 39 23 36 c18 30 20 37 7 37 -8 0 -22 -10 -30 -22 l-16 -22 -16 22 c-14
20 -44 31 -44 16z"/>
<path d="M2292 938 c-13 -13 -17 -138 -4 -138 15 0 30 22 25 36 -3 10 3 14 20
14 28 0 57 23 57 46 0 39 -70 70 -98 42z m61 -32 c7 -18 -1 -26 -25 -26 -11 0
-18 7 -18 20 0 23 35 28 43 6z"/>
<path d="M2443 943 c-18 -7 -18 -146 0 -141 6 3 14 18 17 34 l5 29 23 -33 c13
-17 30 -32 38 -32 18 0 18 9 -3 32 -14 15 -14 22 -4 42 27 49 -21 92 -76 69z
m52 -43 c0 -8 -8 -16 -17 -18 -13 -2 -18 3 -18 18 0 15 5 20 18 18 9 -2 17
-10 17 -18z"/>
<path d="M2584 938 c-11 -18 -4 -122 9 -130 7 -4 27 -8 45 -8 41 0 39 23 -1
28 -32 4 -36 29 -5 34 32 5 35 28 4 28 -35 0 -34 28 1 32 14 2 28 9 31 16 5
16 -74 17 -84 0z"/>
<path d="M2716 934 c-23 -22 -17 -44 18 -63 33 -19 32 -36 -4 -36 -37 -1 -32
-29 6 -33 67 -6 87 58 27 83 -39 16 -36 31 7 37 35 4 31 22 -6 26 -20 2 -38
-3 -48 -14z"/>
<path d="M2846 934 c-23 -22 -17 -44 18 -63 33 -19 32 -36 -4 -36 -34 -1 -33
-29 2 -33 39 -5 68 14 68 44 0 19 -8 28 -35 40 -41 17 -38 34 6 34 40 0 33 24
-8 28 -19 2 -37 -3 -47 -14z"/>
<path d="M33 643 c-7 -2 -13 -19 -12 -36 0 -18 3 -26 6 -19 6 14 33 16 33 2 0
-5 5 -10 10 -10 14 0 13 43 -2 58 -13 13 -16 13 -35 5z"/>
<path d="M110 616 c0 -33 2 -36 28 -35 24 2 25 2 4 6 -19 4 -23 9 -18 28 3 13
2 27 -4 30 -6 4 -10 -8 -10 -29z"/>
<path d="M313 643 c-15 -5 -18 -63 -4 -63 5 0 11 12 13 28 4 36 21 35 30 -3 6
-29 6 -29 5 5 -2 34 -16 45 -44 33z"/>
<path d="M407 644 c-4 -4 -7 -21 -6 -38 0 -17 3 -25 6 -18 2 6 11 12 18 12 7
0 16 -6 19 -12 3 -7 4 3 3 22 -2 33 -23 51 -40 34z"/>
<path d="M485 640 c-3 -5 -2 -10 4 -10 5 0 12 -12 14 -27 l4 -28 2 28 c0 15 6
27 12 27 5 0 7 5 4 10 -3 6 -12 10 -20 10 -8 0 -17 -4 -20 -10z"/>
<path d="M566 624 c4 -17 2 -29 -7 -35 -11 -7 -9 -9 6 -9 16 0 20 7 20 35 0
22 -5 35 -13 35 -8 0 -10 -8 -6 -26z"/>
<path d="M632 641 c-21 -13 -11 -55 15 -59 30 -4 49 31 27 52 -18 18 -24 19
-42 7z m38 -32 c0 -25 -33 -22 -38 4 -2 12 3 17 17 17 15 0 21 -6 21 -21z"/>
<path d="M721 611 c1 -36 1 -36 8 -6 3 17 11 30 16 30 5 0 13 -13 17 -30 6
-29 6 -29 5 5 -2 29 -6 35 -24 36 -20 1 -23 -3 -22 -35z"/>
<path d="M857 643 c-4 -3 -7 -19 -7 -35 0 -23 4 -28 23 -28 22 0 47 16 47 31
0 24 -48 48 -63 32z m43 -34 c0 -10 -7 -19 -15 -19 -9 0 -15 9 -15 25 0 18 4
23 15 19 8 -4 15 -15 15 -25z"/>
<path d="M950 624 c-12 -32 -6 -44 23 -43 17 1 18 2 5 6 -10 2 -18 8 -18 13 0
5 8 11 18 13 16 4 16 5 -1 6 -10 0 -15 6 -12 11 4 6 11 8 16 5 5 -4 9 -1 9 4
0 22 -31 10 -40 -15z"/>
<path d="M1027 642 c-16 -23 1 -62 26 -61 16 1 17 3 5 6 -10 3 -18 16 -20 36
-2 22 -6 28 -11 19z"/>
<path d="M1097 638 c13 -21 13 -42 0 -50 -8 -5 -5 -8 8 -8 16 0 20 7 20 35 0
27 -4 35 -18 35 -12 0 -16 -4 -10 -12z"/>
<path d="M1150 647 c0 -4 7 -22 16 -39 17 -34 29 -28 39 17 l6 30 -15 -30 c-8
-16 -15 -25 -15 -19 -1 13 -30 52 -31 41z"/>
<path d="M1247 643 c-4 -3 -7 -19 -7 -35 0 -23 4 -28 25 -28 14 0 25 4 25 9 0
5 -9 7 -20 4 -11 -3 -20 -1 -20 5 0 6 8 13 18 15 16 4 16 5 -1 6 -10 0 -16 5
-12 11 3 5 13 6 22 3 11 -4 14 -3 9 5 -8 13 -29 16 -39 5z"/>
<path d="M1320 613 c0 -27 3 -34 9 -24 7 11 13 12 23 3 11 -9 14 -5 13 21 0
25 -5 33 -22 35 -20 3 -23 -1 -23 -35z"/>
<path d="M1402 629 c2 -15 12 -25 28 -29 17 -4 21 -8 12 -14 -6 -4 -16 -4 -22
-1 -5 3 -10 1 -10 -5 0 -6 10 -10 23 -8 18 2 22 10 24 43 0 22 -1 30 -4 18 -5
-25 -33 -32 -33 -9 0 8 -5 18 -11 22 -7 4 -9 -2 -7 -17z"/>
<path d="M1545 640 c-4 -6 -1 -18 6 -26 11 -14 13 -14 21 0 15 26 -12 51 -27
26z"/>
<path d="M1664 639 c-4 -7 4 -20 17 -31 l24 -20 -22 5 c-13 3 -23 1 -23 -5 0
-14 43 -5 48 10 2 7 -5 16 -17 19 -11 3 -18 9 -16 14 3 4 13 5 22 2 11 -4 14
-3 9 5 -9 15 -33 15 -42 1z"/>
<path d="M1747 643 c-4 -3 -7 -19 -7 -35 0 -23 4 -28 25 -28 14 0 25 4 25 9 0
5 -9 7 -20 4 -11 -3 -20 -1 -20 5 0 6 8 13 18 15 16 4 16 5 -1 6 -10 0 -16 5
-12 11 3 5 13 6 22 3 11 -4 14 -3 9 5 -8 13 -29 16 -39 5z"/>
<path d="M1819 634 c-9 -11 -10 -20 -2 -32 11 -19 53 -29 53 -13 0 6 -7 8 -16
4 -16 -6 -37 15 -28 29 3 4 14 8 25 8 11 0 17 5 14 10 -9 15 -31 12 -46 -6z"/>
<path d="M1903 620 c2 -30 6 -35 30 -38 25 -3 27 -1 26 35 -1 36 -2 37 -8 8
-3 -17 -13 -30 -21 -30 -8 0 -18 13 -22 30 -6 29 -6 29 -5 -5z"/>
<path d="M1997 643 c-10 -10 -8 -63 2 -63 5 0 12 6 15 13 5 10 7 10 12 0 9
-20 20 -15 19 10 -1 38 -28 61 -48 40z"/>
<path d="M2078 638 c16 -16 15 -45 0 -51 -7 -3 -4 -6 7 -6 16 -1 20 5 20 34 0
28 -4 35 -19 35 -16 0 -17 -3 -8 -12z"/>
<path d="M2135 640 c-3 -5 -1 -10 4 -10 6 0 11 -11 11 -25 0 -14 5 -25 11 -25
7 0 9 10 5 25 -5 20 -3 25 11 25 15 0 16 2 3 10 -19 13 -37 13 -45 0z"/>
<path d="M2213 630 c1 -17 10 -26 27 -30 15 -4 20 -9 13 -13 -6 -4 -19 -4 -30
-1 -14 5 -15 4 -7 -5 7 -7 20 -11 30 -9 14 2 20 13 21 43 2 33 1 36 -7 18 -5
-13 -14 -23 -20 -23 -6 0 -15 10 -20 23 -10 22 -10 22 -7 -3z"/>
<path d="M2356 634 c-19 -19 -20 -26 -4 -42 14 -14 48 -16 48 -3 0 5 -9 7 -20
4 -15 -4 -20 0 -20 16 0 15 6 21 21 21 11 0 17 5 14 10 -9 14 -21 12 -39 -6z"/>
<path d="M2440 635 c-6 -8 -10 -22 -8 -32 4 -24 47 -24 62 0 9 15 7 21 -8 33
-25 18 -31 18 -46 -1z m40 -26 c0 -23 -28 -26 -37 -3 -6 16 15 37 29 28 4 -3
8 -14 8 -25z"/>
<path d="M2531 611 c1 -36 1 -36 8 -6 8 37 25 36 30 -2 l4 -28 6 30 c8 38 24
38 33 -1 6 -28 6 -27 5 6 -2 34 -3 35 -44 36 -43 0 -43 0 -42 -35z"/>
<path d="M2660 613 c0 -21 4 -33 8 -27 4 6 15 13 25 17 21 8 22 33 1 41 -29
11 -34 6 -34 -31z"/>
<path d="M2753 643 c-7 -2 -13 -19 -12 -36 0 -18 3 -26 6 -19 6 14 33 16 33 2
0 -5 5 -10 10 -10 14 0 13 43 -2 58 -13 13 -16 13 -35 5z"/>
<path d="M2831 610 c1 -31 2 -32 8 -10 10 37 41 39 42 3 2 -24 2 -25 6 -5 6
28 -12 51 -38 49 -15 -1 -19 -8 -18 -37z"/>
<path d="M2922 629 c2 -15 12 -25 28 -29 17 -4 21 -8 12 -14 -6 -4 -16 -4 -22
-1 -5 3 -10 1 -10 -5 0 -6 10 -10 23 -8 18 2 22 10 24 43 0 22 -1 30 -4 18 -5
-25 -33 -32 -33 -9 0 8 -5 18 -11 22 -7 4 -9 -2 -7 -17z"/>
<path d="M1537 604 c-11 -12 3 -24 29 -24 15 0 24 6 24 16 0 14 -3 14 -16 3
-12 -10 -17 -10 -23 -1 -4 7 -10 9 -14 6z"/>
<path d="M1064 346 c-3 -8 -4 -27 -1 -43 3 -23 4 -22 6 10 1 35 3 37 34 37 18
0 39 -6 47 -12 12 -11 12 -10 1 5 -16 21 -79 23 -87 3z"/>
<path d="M1061 258 c-1 -14 7 -18 38 -18 25 0 43 6 52 18 11 14 11 15 -1 5 -8
-7 -28 -13 -46 -13 -18 0 -35 6 -37 13 -3 7 -6 5 -6 -5z"/>
</g>
</svg>
